<?xml version="1.0" encoding="UTF-8"?>
<svg id="Layer_1" data-name="Layer 1" xmlns="http://www.w3.org/2000/svg" viewBox="0 0 123.51 142.78">
  <path d="M61.64,142.78h-14.64c-1.7,0-3.08-1.38-3.08-3.08V9.39h-8.48v115.2c0,1.7-1.38,3.08-3.08,3.08h-14.64c-1.7,0-3.08-1.38-3.08-3.08V36.54H6.16v67.21c0,1.7-1.38,3.08-3.08,3.08s-3.08-1.38-3.08-3.08V33.45c0-1.7,1.38-3.08,3.08-3.08h14.64c1.7,0,3.08,1.38,3.08,3.08v88.05h8.48V6.3c0-1.7,1.38-3.08,3.08-3.08h14.64c1.7,0,3.08,1.38,3.08,3.08v130.31h8.48V3.08c0-1.7,1.38-3.08,3.08-3.08h14.64c1.7,0,3.08,1.38,3.08,3.08v125.77h8.48V21.11c0-1.7,1.38-3.08,3.08-3.08h14.64c1.7,0,3.08,1.38,3.08,3.08v85.75h8.7v-60.64c0-1.7,1.38-3.08,3.08-3.08s3.08,1.38,3.08,3.08v63.72c0,1.7-1.38,3.08-3.08,3.08h-14.87c-1.7,0-3.08-1.38-3.08-3.08V24.19h-8.48v107.75c0,1.7-1.38,3.08-3.08,3.08h-14.64c-1.7,0-3.08-1.38-3.08-3.08V6.16h-8.48v133.53c0,1.7-1.38,3.08-3.08,3.08Z"/>
</svg>