<?xml version="1.0" encoding="UTF-8"?>
<svg xmlns="http://www.w3.org/2000/svg" version="1.1" viewBox="0 0 518 329">
  <!-- Generator: Adobe Illustrator 30.1.0, SVG Export Plug-In . SVG Version: 2.1.1 Build 136)  -->
  <defs>
    <style>
      .st0 {
        fill: #232323;
      }

      .st1 {
        fill: #133441;
      }

      .st2 {
        fill: #f9f6ed;
      }

      .st3 {
        isolation: isolate;
      }

      .st4 {
        mix-blend-mode: multiply;
      }

      .st5 {
        fill: #fff;
      }

      .st6 {
        fill: #ffdc4a;
      }

      .st7 {
        fill: #eddbc0;
      }

      .st8 {
        fill: #ff5601;
      }
    </style>
  </defs>
  <g class="st3">
    <g id="Layer_1">
      <path class="st0" d="M387.43,328.52c44.18,0,79.99-6.32,79.99-14.12s-35.82-14.12-79.99-14.12-79.99,6.32-79.99,14.12,35.82,14.12,79.99,14.12Z"/>
      <g>
        <path class="st8" d="M354.32,66.17s-75.84,43.89-60.51,142.62c13.29,85.59,208.22,53.58,195.19-30.31-15.53-99.99-97.53-118.07-97.53-118.07l-37.15,5.77Z"/>
        <path class="st8" d="M350.48,67.18c-.77-4.99-21.92-11.59-25.64-16.73-3.72-5.15,3.39-10.61,9.53-12.11,0,0,3.68-16.16,21.89-16.21,12.27-19.44,26.85-16.85,31.46-7.61,0,0,19.53,1.06,23.98,12.63,4.45,11.57-21.56,33.88-21.56,33.88l-39.64,6.16Z"/>
        <g class="st4">
          <path class="st7" d="M383.42,58.99s3.13-27.02,7.67-28.83c4.53-1.82-1.19,28.72-1.19,28.72,0,0,3.93-12.43,7.31-12.28s-4.51,12.74-4.51,12.74l-35.58,6.86s-20.46-18.94-17.58-19.08c3.62-.17,20.44,15.96,20.44,15.96l7.29-1.58s-7.78-25.54-5.23-26.6,10.3,25.59,10.3,25.59l11.08-1.5Z"/>
        </g>
        <g class="st4">
          <path class="st7" d="M354.93,66.99s-19.78,22.13-18.82,23.18,25.33-24.32,25.33-24.32c0,0-2.38,9.84.05,10.18,2.43.35,3.01-10.9,3.01-10.9l13.02-2.26s3.15,13.34,6.34,14.17c3.19.83-2.65-14.5-2.65-14.5l8.68-.99s13.1,10.53,15.03,10.59-10.52-10.69-10.52-10.69l-19.35-1.34-20.12,6.86Z"/>
        </g>
        <path class="st1" d="M396.39,61.56c-21.86.26-40.81,5.58-45.82,7.11-.72.22-1.49-.21-1.73-.98l-.91-2.87c-.25-.8.16-1.64.91-1.87,5.23-1.62,24.52-7.09,47.41-7.36.78,0,1.43.66,1.44,1.48l.06,3c.02.81-.59,1.48-1.35,1.49Z"/>
      </g>
      <g>
        <path class="st5" d="M358.8,251.21c-10.05,7.18-10.82,46.69-10.82,46.69l25.46,4.19,13.98-47.74-28.63-3.13h.01Z"/>
        <path class="st0" d="M374.75,304.16l-28.64-4.72.03-1.59c.08-4.14,1.09-40.64,11.59-48.15l2.91-2.08v1.94l29.17,3.19-15.06,51.4h0ZM349.86,296.34l22.28,3.67,12.91-44.07-25.7-2.81c-6.86,6.08-9.11,31.74-9.48,43.21h0Z"/>
      </g>
      <g>
        <path class="st5" d="M370.17,314.15l3.28-12.07s-13.95-6.14-25.46-4.19c-6.81,1.15-13.19,5.89-13.19,16.26h35.38-.01Z"/>
        <path class="st0" d="M371.57,315.99h-38.62v-1.84c0-9.76,5.51-16.52,14.73-18.07,11.91-2.01,25.92,4.07,26.51,4.32l1.45.64-4.06,14.95h-.01ZM336.71,312.31h32.06l2.48-9.13c-3.79-1.45-14.24-4.95-22.95-3.48-3.31.56-10.75,2.89-11.58,12.61h-.01Z"/>
      </g>
      <g>
        <path class="st5" d="M428.59,241.88c11.36,22.55-.18,55.63-.18,55.63l-23.59,4.58-13.18-48.15,36.96-12.07h-.01Z"/>
        <path class="st0" d="M403.49,304.22l-14.1-51.48,40.12-13.1.71,1.41c6.08,12.07,5.72,26.96,4.35,37.34-1.47,11.15-4.32,19.38-4.44,19.72l-.35,1-26.3,5.11h.01ZM393.87,255.15l12.27,44.81,20.85-4.05c1.72-5.48,9.38-32.42.63-51.78l-33.75,11.02h0Z"/>
      </g>
      <g>
        <path class="st5" d="M408.16,313.73l-3.35-11.66s17.03-4.29,23.59-4.58c6.24-.27,19.1,6.18,15.87,16.24h-36.11,0Z"/>
        <path class="st0" d="M445.61,315.57h-38.84l-4.25-14.81,1.84-.46c.7-.18,17.29-4.34,23.95-4.64,4.59-.21,11.91,2.67,15.72,7.67,2.53,3.32,3.22,7.11,1.98,10.97l-.41,1.28h0ZM409.55,311.89h33.28c.37-2.23-.2-4.36-1.71-6.34-2.95-3.86-8.99-6.36-12.64-6.22-5.05.22-16.82,2.97-21.37,4.08l2.44,8.49h0Z"/>
      </g>
      <path class="st6" d="M432.48,147.91c-13.88-1.67-23.83-13.91-22.21-27.33,1.62-13.42,14.18-22.94,28.06-21.27,13.88,1.67,23.83,13.91,22.21,27.33-1.62,13.42-14.18,22.94-28.06,21.27h0Z"/>
      <path class="st0" d="M273.96,149.61l188.33,14.26-.96,12.72-23.79-1.8-164.54-12.46.96-12.72h0Z"/>
      <path class="st0" d="M354.32,168.49c-1.1,14.47-15.17,25.2-31.44,23.97-16.27-1.24-28.57-13.96-27.47-28.43l58.91,4.47h0Z"/>
      <path class="st0" d="M426.08,173.93c-1.1,14.47-15.17,25.2-31.44,23.98-16.27-1.24-28.57-13.96-27.47-28.43l58.91,4.47h0v-.02Z"/>
      <path class="st2" d="M321.58,166.07l5.24,21.01-11.75-1.03-5.24-21.01,11.75,1.03Z"/>
      <path class="st2" d="M393.95,171.76l5.24,21.02-11.76-1.04-5.24-21.01,11.76,1.03h0Z"/>
      <path class="st0" d="M342.2,215.46c-5.03,0-9.13-4.57-9.13-10.2s4.09-10.2,9.13-10.2,9.13,4.57,9.13,10.2-4.09,10.2-9.13,10.2ZM342.2,198.74c-3,0-5.45,2.92-5.45,6.52s2.44,6.52,5.45,6.52,5.45-2.92,5.45-6.52-2.44-6.52-5.45-6.52Z"/>
      <g>
        <path class="st5" d="M312.77,83.84v9.95c0,9.38-7.6,16.98-16.98,16.98h-9.95v.47h9.95c9.38,0,16.98,7.6,16.98,16.98v9.95h.47v-9.95c0-9.38,7.6-16.98,16.98-16.98h9.95v-.47h-9.95c-9.38,0-16.98-7.6-16.98-16.98v-9.95h-.47Z"/>
        <path class="st0" d="M315.07,140h-4.15v-11.79c0-8.35-6.79-15.14-15.14-15.14h-11.79v-4.15h11.79c8.35,0,15.14-6.79,15.14-15.14v-11.79h4.15v11.79c0,8.35,6.79,15.14,15.14,15.14h11.79v4.15h-11.79c-8.35,0-15.14,6.79-15.14,15.14v11.79ZM303.39,111c4.27,1.9,7.71,5.34,9.61,9.61,1.89-4.27,5.33-7.71,9.61-9.61-4.27-1.9-7.71-5.34-9.61-9.61-1.89,4.27-5.33,7.71-9.61,9.61Z"/>
      </g>
      <g>
        <path class="st5" d="M488.77,115.84v9.95c0,9.38-7.6,16.98-16.98,16.98h-9.95v.47h9.95c9.38,0,16.98,7.6,16.98,16.98v9.95h.47v-9.95c0-9.38,7.6-16.98,16.98-16.98h9.95v-.47h-9.95c-9.38,0-16.98-7.6-16.98-16.98v-9.95h-.47,0Z"/>
        <path class="st0" d="M491.07,172h-4.15v-11.79c0-8.35-6.79-15.14-15.14-15.14h-11.79v-4.15h11.79c8.35,0,15.14-6.79,15.14-15.14v-11.79h4.15v11.79c0,8.35,6.79,15.14,15.14,15.14h11.79v4.15h-11.79c-8.35,0-15.14,6.79-15.14,15.14v11.79h0ZM479.39,143c4.27,1.9,7.71,5.34,9.61,9.61,1.89-4.27,5.33-7.71,9.61-9.61-4.27-1.9-7.71-5.34-9.61-9.61-1.89,4.27-5.33,7.71-9.61,9.61Z"/>
      </g>
      <g>
        <path class="st5" d="M208.77,52.84v9.95c0,9.38-7.6,16.98-16.98,16.98h-9.95v.47h9.95c9.38,0,16.98,7.6,16.98,16.98v9.95h.47v-9.95c0-9.38,7.6-16.98,16.98-16.98h9.95v-.47h-9.95c-9.38,0-16.98-7.6-16.98-16.98v-9.95s-.47,0-.47,0Z"/>
        <path class="st0" d="M211.07,109h-4.15v-11.79c0-8.35-6.79-15.14-15.14-15.14h-11.79v-4.15h11.79c8.35,0,15.14-6.79,15.14-15.14v-11.79h4.15v11.79c0,8.35,6.79,15.14,15.14,15.14h11.79v4.15h-11.79c-8.35,0-15.14,6.79-15.14,15.14v11.79ZM199.39,80c4.27,1.89,7.71,5.33,9.61,9.61,1.9-4.27,5.34-7.71,9.61-9.61-4.27-1.89-7.71-5.33-9.61-9.61-1.9,4.27-5.34,7.71-9.61,9.61Z"/>
      </g>
      <g>
        <path class="st5" d="M157.77,1.84v9.95c0,9.38-7.6,16.98-16.98,16.98h-9.95v.47h9.95c9.38,0,16.98,7.6,16.98,16.98v9.95h.47v-9.95c0-9.38,7.6-16.98,16.98-16.98h9.95v-.47h-9.95c-9.38,0-16.98-7.6-16.98-16.98V1.84h-.47Z"/>
        <path class="st0" d="M160.07,58h-4.15v-11.79c0-8.35-6.79-15.14-15.14-15.14h-11.79v-4.15h11.79c8.35,0,15.14-6.79,15.14-15.14V0h4.15v11.79c0,8.35,6.79,15.14,15.14,15.14h11.79v4.15h-11.79c-8.35,0-15.14,6.79-15.14,15.14v11.79h0ZM148.39,29c4.27,1.89,7.71,5.33,9.61,9.61,1.9-4.27,5.34-7.71,9.61-9.61-4.27-1.89-7.71-5.33-9.61-9.61-1.9,4.27-5.34,7.71-9.61,9.61Z"/>
      </g>
      <g>
        <path class="st5" d="M28.77,86.84v9.95c0,9.38-7.6,16.98-16.98,16.98H1.84v.47h9.95c9.38,0,16.98,7.6,16.98,16.98v9.95h.47v-9.95c0-9.38,7.6-16.98,16.98-16.98h9.95v-.47h-9.95c-9.38,0-16.98-7.6-16.98-16.98v-9.95h-.47Z"/>
        <path class="st0" d="M31.07,143h-4.15v-11.79c0-8.35-6.79-15.14-15.14-15.14H0v-4.15h11.79c8.35,0,15.14-6.79,15.14-15.14v-11.79h4.15v11.79c0,8.35,6.79,15.14,15.14,15.14h11.79v4.15h-11.79c-8.35,0-15.14,6.79-15.14,15.14v11.79h-.01ZM19.39,114c4.27,1.9,7.71,5.34,9.61,9.61,1.89-4.27,5.33-7.71,9.61-9.61-4.27-1.9-7.71-5.34-9.61-9.61-1.89,4.27-5.33,7.71-9.61,9.61Z"/>
      </g>
    </g>
  </g>
</svg>