<?xml version="1.0" encoding="UTF-8"?>
<svg xmlns="http://www.w3.org/2000/svg" version="1.1" viewBox="0 0 219 322">
  <!-- Generator: Adobe Illustrator 30.1.0, SVG Export Plug-In . SVG Version: 2.1.1 Build 136)  -->
  <defs>
    <style>
      .st0 {
        fill: #232323;
      }

      .st1 {
        fill: #133441;
      }

      .st2 {
        isolation: isolate;
      }

      .st3 {
        mix-blend-mode: multiply;
      }

      .st4 {
        fill: #fff;
      }

      .st5 {
        fill: #ffdc4a;
      }

      .st6 {
        fill: #eddbc0;
      }

      .st7 {
        fill: #ff5601;
      }
    </style>
  </defs>
  <g class="st2">
    <g id="Layer_1">
      <path class="st0" d="M105.86,322c44.17,0,79.99-6.32,79.99-14.12s-35.82-14.12-79.99-14.12-79.99,6.33-79.99,14.12,35.82,14.12,79.99,14.12Z"/>
      <g>
        <g>
          <path class="st1" d="M21.93,221.11c-9.37,0-17.39-8.03-18.84-19.03-1.41-10.67,4.1-24.7,24.25-29.09,1.34-.29,2.66.56,2.96,1.9s-.56,2.66-1.9,2.96c-16.84,3.67-21.57,14.59-20.39,23.59.98,7.41,6.41,15.07,14.46,14.7,1.41-.09,2.53.99,2.6,2.36.07,1.37-.99,2.53-2.36,2.6-.26.01-.52.02-.78.02Z"/>
          <path class="st1" d="M25.98,226.35c-.76,0-1.51-.11-2.23-.34-3.19-1.02-4.96-4-4.74-7.97.29-5.14,3.22-6.85,5.67-6.75,1.44.06,2.82.74,3.91,1.76,2.11.49,3.81,1.6,4.82,3.23,1.17,1.88,1.2,4.16.08,5.95-1.6,2.55-4.61,4.12-7.51,4.12Z"/>
        </g>
        <g>
          <path class="st1" d="M189.42,203.77c-4.73,0-10.1-1.89-15.44-6.89-1-.94-1.05-2.51-.12-3.51.94-1,2.51-1.05,3.51-.12,6.36,5.96,13.49,7.22,19.08,3.38,5.02-3.46,8.32-11.28,4.93-19.53-.52-1.27.09-2.72,1.36-3.24,1.28-.52,2.72.09,3.24,1.36,3.87,9.43,1.04,20.16-6.71,25.51-2.63,1.82-6.04,3.05-9.86,3.05Z"/>
          <path class="st1" d="M203.53,180.55c-.55,0-1.1-.07-1.64-.22-.05,0-.1,0-.15,0-1.62-.06-6.56-.23-6.72-4.09-.05-1.35.61-2.94,1.68-4.35-.23-1.07-.56-1.64-.73-1.75,0,0-.1,0-.28.03-1.76.29-3.43-.9-3.72-2.66s.9-3.43,2.66-3.72c2.05-.34,3.92.12,5.41,1.33,1.04.85,1.77,1.96,2.28,3.16,1.99-.29,3.96.34,5.6,1.85,1.52,1.4,2.12,3.36,1.62,5.36-.54,2.22-2.49,4.32-4.52,4.87-.48.13-.99.19-1.5.19Z"/>
        </g>
        <g>
          <path class="st7" d="M90.6,73.2S17.64,99.83,17.64,183.65c0,72.68,176.44,71.24,176.44,0,0-84.9-69.9-110.45-69.9-110.45h-33.58Z"/>
          <path class="st7" d="M87.55,73.55c0-4.49-18.16-13.17-20.79-18.19-2.63-5.03,4.55-8.86,10.29-9.34,0,0,5.59-13.69,22.02-11.25,13.8-15.4,26.59-11.14,29.46-2.39,0,0,17.47,3.59,19.87,14.36,2.39,10.77-24.21,26.81-24.21,26.81h-36.64Z"/>
          <g class="st3">
            <path class="st6" d="M117.27,71s6.47-21.99,10.72-22.92c4.25-.92-4.99,23.66-4.99,23.66,0,0,5.18-9.8,8.13-9.24s-5.73,9.98-5.73,9.98l-32.34,1.11s-15.46-18.34-12.9-18.08c3.22.32,15.86,15.86,15.86,15.86l6.65-.37s-3.37-22.17-.97-22.73c2.4-.55,5.59,22.54,5.59,22.54l9.98.18Z"/>
          </g>
          <g class="st3">
            <path class="st6" d="M91.03,73.96s-20.49,15.8-19.79,16.8,25.69-16.9,25.69-16.9c0,0-3.45,7.85-1.35,8.45s4.15-8.65,4.15-8.65l11.8-.2s.95,11.47,3.65,12.57c2.7,1.1-.35-12.37-.35-12.37l7.8.3s10.12,10.42,11.82,10.72-7.82-10.22-7.82-10.22l-16.9-3.6-18.7,3.1Z"/>
          </g>
          <path class="st1" d="M128.37,74.79c-19.33-2.6-36.78-.63-41.42,0-.67.09-1.29-.37-1.4-1.04l-.41-2.49c-.11-.69.37-1.34,1.06-1.44,4.83-.67,22.62-2.72,42.85,0,.69.09,1.17.73,1.07,1.42l-.36,2.5c-.1.68-.72,1.15-1.4,1.06Z"/>
        </g>
        <g>
          <g>
            <ellipse class="st4" cx="70.23" cy="178.23" rx="18.03" ry="18.05" transform="translate(-108.84 246.3) rotate(-89.31)"/>
            <path class="st1" d="M82.64,177.7c-.3-6.85-6.1-12.16-12.96-11.87-6.86.3-12.18,6.09-11.89,12.94.3,6.85,6.1,12.16,12.96,11.87,6.86-.3,12.18-6.09,11.88-12.94ZM68.7,176.96c-1.92,2.18-4.95,2.66-6.77,1.07-1.81-1.59-1.73-4.66.2-6.84,1.92-2.18,4.95-2.66,6.77-1.07,1.82,1.59,1.73,4.66-.2,6.84ZM78.27,185.22c-1.11,1.26-2.87,1.54-3.92.62-1.05-.92-1-2.69.11-3.96,1.11-1.26,2.87-1.54,3.92-.62,1.05.92,1,2.69-.11,3.96Z"/>
            <ellipse class="st4" cx="147.88" cy="178.23" rx="18.03" ry="18.05" transform="translate(-32.12 323.96) rotate(-89.31)"/>
            <path class="st1" d="M160.29,177.7c-.3-6.85-6.1-12.16-12.96-11.87-6.86.3-12.18,6.09-11.89,12.94.3,6.85,6.1,12.16,12.96,11.87,6.86-.3,12.18-6.09,11.88-12.94ZM146.52,176.23c-2.18,1.92-5.25,2.02-6.85.21-1.6-1.81-1.13-4.84,1.06-6.76,2.18-1.92,5.25-2.02,6.85-.21,1.6,1.81,1.13,4.84-1.06,6.76ZM156.75,184.77c-1.11,1.26-2.87,1.54-3.92.62-1.05-.92-1-2.69.11-3.96,1.11-1.26,2.87-1.54,3.92-.62,1.05.92,1,2.69-.11,3.96Z"/>
          </g>
          <g>
            <path class="st1" d="M134.76,144.28c-.42,3.16,5.14,5.02,11.37,5.71,5.58.62,10.96,1.72,12.24-2.33,2.64-8.32-22.35-12.91-23.62-3.38Z"/>
            <path class="st1" d="M59.72,147.58c1.25,4.05,6.64,2.99,12.23,2.41,6.24-.65,11.81-2.46,11.41-5.63-1.2-9.54-26.22-5.12-23.64,3.22Z"/>
          </g>
        </g>
        <path class="st1" d="M118.93,194.54c-1.11-4.4-6.09-6.4-10.25-6.63-3.4-.18-11.92,1.69-11.31,6.52.1.81.83,1.72,1.78,1.36,1.63-.62,2.27-2.18,3.74-3.1,1.62-1.01,3.57-1.37,5.45-1.35,3.41.04,7.02,1.27,9.2,4,.54.68,1.56-.07,1.38-.8h0Z"/>
      </g>
      <g>
        <path class="st4" d="M121.79,302.17l-2.69-12.84,20.22-3.13c6.19-1.02,16.69,3.73,16.39,14.04l-33.93,1.93h0Z"/>
        <path class="st0" d="M157.5,301.98l-37.19,2.11-3.41-16.28,22.13-3.42c4.31-.72,9.7.97,13.4,4.21,2.42,2.12,5.28,5.87,5.11,11.71l-.04,1.69h0ZM123.26,300.25l30.54-1.74c-.38-3.45-2.2-5.76-3.79-7.15-3.35-2.92-7.75-3.78-10.4-3.35l-18.33,2.83,1.97,9.39h0Z"/>
      </g>
      <g>
        <path class="st4" d="M106.72,237.78l12.37,51.56,20.22-3.13s11.68-43.69,2.07-53.23c-7.06-7.01-34.65,4.8-34.65,4.8h0Z"/>
        <path class="st0" d="M117.69,291.42l-13.13-54.72,1.43-.61c2.94-1.26,28.97-12.07,36.68-4.42,4.42,4.39,5.45,15.07,3.09,31.76-1.72,12.09-4.65,23.14-4.68,23.25l-.31,1.16-23.08,3.59h0ZM108.88,238.87l11.61,48.39,17.36-2.69c3.27-12.69,9.28-43.31,2.25-50.3-4.29-4.26-20.81.36-31.21,4.6h0Z"/>
      </g>
      <g>
        <path class="st4" d="M91.45,303.43l2.15-12.94-20.69-2.23c-6.34-.75-16.78,4.47-16.01,14.76l34.55.42h0Z"/>
        <path class="st0" d="M55.17,304.83l37.88.46,2.72-16.42-22.64-2.43c-4.41-.52-9.81,1.4-13.42,4.8-2.37,2.22-5.1,6.1-4.66,11.92l.12,1.68h0ZM89.87,301.58l-31.11-.38c.23-3.47,1.97-5.86,3.53-7.31,3.27-3.07,7.7-4.12,10.41-3.8l18.75,2.02-1.57,9.47h-.01Z"/>
      </g>
      <g>
        <path class="st4" d="M103.82,238.43l-10.21,52.06-20.69-2.23s-13.86-43.13-4.53-53.09c6.85-7.32,35.42,3.26,35.42,3.26h.01Z"/>
        <path class="st0" d="M95.12,292.51l10.84-55.25-1.48-.55c-3.05-1.13-29.98-10.77-37.46-2.78-4.29,4.58-4.85,15.3-1.69,31.86,2.3,12,5.78,22.91,5.81,23.02l.37,1.14,23.61,2.56h-.01ZM101.68,239.62l-9.58,48.86-17.75-1.92c-3.9-12.53-11.4-42.85-4.58-50.15,4.16-4.45,21.16-.56,31.92,3.21h0Z"/>
      </g>
      <path class="st5" d="M170.47,216.23c.85-6.51-4.21-12.47-11.31-13.3-7.1-.83-13.54,3.77-14.39,10.28-.85,6.51,4.21,12.47,11.31,13.3s13.54-3.77,14.39-10.28Z"/>
    </g>
  </g>
</svg>